<svg xmlns="http://www.w3.org/2000/svg" width="229.921" height="67.124" viewBox="0 0 229.921 67.124">
  <g id="UPV_full_logo_65th" data-name="UPV full logo 65th" transform="translate(114.96 33.562)">
    <g id="Group_118" data-name="Group 118" transform="translate(-114.96 -33.562)">
      <path id="Path_45" data-name="Path 45" d="M108.134,15.12a5.6,5.6,0,0,0,4.739-2.446,5.429,5.429,0,0,0,.815-3.136V1.5h-1.374V9.595a4.166,4.166,0,0,1-.585,2.4,4.429,4.429,0,0,1-7.189,0,4.173,4.173,0,0,1-.586-2.4V1.5H102.58V9.537a5.424,5.424,0,0,0,.816,3.136,5.6,5.6,0,0,0,4.738,2.446" transform="translate(-31.871 -0.466)" fill="#fff"/>
      <path id="Path_46" data-name="Path 46" d="M134.661,12.331l-9-10.831h-.93v13.43H126.1V4.1l8.97,10.794.03.037h.93V1.5h-1.375Z" transform="translate(-38.753 -0.466)" fill="#fff"/>
      <rect id="Rectangle_510" data-name="Rectangle 510" width="1.374" height="13.43" transform="translate(101.579 1.035)" fill="#fff"/>
      <path id="Path_47" data-name="Path 47" d="M157.266,14.931h1.374V2.786h3.894V1.5h-9.161V2.786h3.893Z" transform="translate(-47.652 -0.466)" fill="#fff"/>
      <path id="Path_48" data-name="Path 48" d="M178.51,13.646h-6.426V8.169h4.868V6.884h-4.868v-4.1h6.23V1.5h-7.6V14.932h7.8Z" transform="translate(-53.038 -0.466)" fill="#fff"/>
      <path id="Path_49" data-name="Path 49" d="M195.092,13.665h0a6.774,6.774,0,0,0,0-10.9A7.837,7.837,0,0,0,190.34,1.5h-4V14.932h4a7.842,7.842,0,0,0,4.752-1.266m-4.81-10.879a6.42,6.42,0,0,1,4.086,1.094,5.376,5.376,0,0,1,2.1,4.336,5.381,5.381,0,0,1-2.1,4.336,6.428,6.428,0,0,1-4.086,1.093h-2.564V2.787Z" transform="translate(-57.895 -0.466)" fill="#fff"/>
      <path id="Path_50" data-name="Path 50" d="M225.72,2.317a4.112,4.112,0,0,0-2.732-.816h-5.144V14.932h1.374V8.546h3.771a4.112,4.112,0,0,0,2.732-.815,3.493,3.493,0,0,0,0-5.413m-6.5.469h3.713a2.71,2.71,0,0,1,2.032.67,2.172,2.172,0,0,1,0,3.135,2.71,2.71,0,0,1-2.032.67h-3.713Z" transform="translate(-67.682 -0.466)" fill="#fff"/>
      <path id="Path_51" data-name="Path 51" d="M243.118,13.646h-6.425V1.5h-1.374V14.932h7.8Z" transform="translate(-73.111 -0.466)" fill="#fff"/>
      <path id="Path_52" data-name="Path 52" d="M252.465,10.945h6.486l1.792,3.986h1.393L256.191,1.562l-.028-.061h-.911L249.28,14.932h1.393Zm.559-1.285,2.683-6.026,2.665,6.026Z" transform="translate(-77.449 -0.466)" fill="#fff"/>
      <path id="Path_53" data-name="Path 53" d="M277.617,1.5h-1.572l-3.879,5.83-3.848-5.785-.03-.045h-1.573l4.764,7.144v6.286h1.375V8.645l4.653-6.982Z" transform="translate(-82.866 -0.466)" fill="#fff"/>
      <path id="Path_54" data-name="Path 54" d="M287.828,8.169H292.7V6.884h-4.868v-4.1h6.229V1.5h-7.6v13.43h7.8V13.646h-6.424Z" transform="translate(-88.999 -0.466)" fill="#fff"/>
      <path id="Path_55" data-name="Path 55" d="M309.688,7.293a3.282,3.282,0,0,0,0-4.917,3.887,3.887,0,0,0-2.714-.875h-4.756V14.932h1.373V8.169h2.145l5.225,6.722.032.041h1.662L307.392,8.16a3.59,3.59,0,0,0,2.3-.866m-6.1-4.507h3.324a2.493,2.493,0,0,1,1.82.54,2,2,0,0,1,0,3.017,2.492,2.492,0,0,1-1.819.54h-3.324Z" transform="translate(-93.896 -0.466)" fill="#fff"/>
      <path id="Path_56" data-name="Path 56" d="M323.92,13.75a4.332,4.332,0,0,1-3.58-1.85l-.065-.083-1.013.87.062.079a5.594,5.594,0,0,0,4.6,2.269,3.8,3.8,0,0,0,4.075-3.656A3.731,3.731,0,0,0,325.88,8.1a13.846,13.846,0,0,0-1.892-.89c-1.475-.606-2.749-1.128-2.749-2.457a2.357,2.357,0,0,1,2.642-2.238,3.775,3.775,0,0,1,2.64,1.053l.076.065.877-.986-.081-.07a5.323,5.323,0,0,0-3.551-1.346,3.67,3.67,0,0,0-3.977,3.58,3.252,3.252,0,0,0,1.9,2.81,14.012,14.012,0,0,0,1.83.86c1.556.643,3.026,1.249,3.026,2.9a2.567,2.567,0,0,1-2.7,2.371" transform="translate(-99.191 -0.381)" fill="#fff"/>
      <path id="Path_57" data-name="Path 57" d="M108.188,26.447a6.9,6.9,0,1,0,6.878,6.9,6.741,6.741,0,0,0-6.878-6.9m0,12.523a5.44,5.44,0,0,1-5.506-5.618,5.506,5.506,0,1,1,11.01,0,5.439,5.439,0,0,1-5.5,5.618" transform="translate(-31.476 -8.217)" fill="#fff"/>
      <path id="Path_58" data-name="Path 58" d="M125.916,40.152h1.373V33.39h4.869V32.1h-4.869v-4.1h6.231V26.722h-7.6Z" transform="translate(-39.121 -8.302)" fill="#fff"/>
      <path id="Path_59" data-name="Path 59" d="M162.606,26.721h-1.431l-4.663,11.171-4.637-11.107-.026-.064h-1.431l5.637,13.43h.914l5.576-13.285Z" transform="translate(-46.733 -8.302)" fill="#fff"/>
      <path id="Path_60" data-name="Path 60" d="M174.586,26.721h-.911L167.7,40.152h1.392l1.792-3.985h6.487l1.792,3.985h1.393l-5.945-13.368Zm2.209,8.159h-5.348l2.683-6.025Z" transform="translate(-52.104 -8.302)" fill="#fff"/>
      <path id="Path_61" data-name="Path 61" d="M200.762,37.553l-8.97-10.793-.031-.037h-.929v13.43h1.374V29.321l8.97,10.793.031.038h.929V26.722h-1.374Z" transform="translate(-59.29 -8.302)" fill="#fff"/>
      <path id="Path_62" data-name="Path 62" d="M224.3,36.932a5.683,5.683,0,0,1-4.4,2.039,5.525,5.525,0,0,1-5.68-5.619,5.469,5.469,0,0,1,5.563-5.619,5.645,5.645,0,0,1,4.073,1.687l.071.075.946-.918L224.8,28.5a6.86,6.86,0,0,0-5.019-2.053,6.905,6.905,0,1,0,.175,13.808,6.962,6.962,0,0,0,5.337-2.475l.065-.08-1-.853Z" transform="translate(-66.13 -8.217)" fill="#fff"/>
      <path id="Path_63" data-name="Path 63" d="M240.916,26.447a6.9,6.9,0,1,0,6.878,6.9,6.741,6.741,0,0,0-6.878-6.9m0,12.523a5.44,5.44,0,0,1-5.506-5.618,5.506,5.506,0,1,1,11.01,0,5.439,5.439,0,0,1-5.5,5.618" transform="translate(-72.713 -8.217)" fill="#fff"/>
      <path id="Path_64" data-name="Path 64" d="M269.034,34.816a4.156,4.156,0,0,1-.587,2.4,4.428,4.428,0,0,1-7.188,0,4.162,4.162,0,0,1-.587-2.4V26.721H259.3v8.038a5.427,5.427,0,0,0,.815,3.136,5.815,5.815,0,0,0,9.477,0,5.427,5.427,0,0,0,.816-3.136V26.721h-1.374Z" transform="translate(-80.562 -8.302)" fill="#fff"/>
      <path id="Path_65" data-name="Path 65" d="M285.925,37.892l-4.637-11.107-.026-.064h-1.431l5.637,13.431h.914l5.575-13.286.061-.146h-1.43Z" transform="translate(-86.941 -8.302)" fill="#fff"/>
      <path id="Path_66" data-name="Path 66" d="M303.441,33.39h4.868V32.105h-4.868v-4.1h6.23V26.722h-7.6v13.43h7.8V38.866h-6.426Z" transform="translate(-93.85 -8.302)" fill="#fff"/>
      <path id="Path_67" data-name="Path 67" d="M323.583,33.38a3.588,3.588,0,0,0,2.3-.865,3.284,3.284,0,0,0,0-4.917,3.882,3.882,0,0,0-2.715-.876h-4.755V40.153h1.374V33.39h2.145l5.225,6.722.032.04h1.663Zm-3.8-5.372H323.1a2.488,2.488,0,0,1,1.821.541,2,2,0,0,1,0,3.016,2.489,2.489,0,0,1-1.82.54h-3.323Z" transform="translate(-98.926 -8.302)" fill="#fff"/>
      <path id="Path_68" data-name="Path 68" d="M50.543,56.923,43.885,43.606H42.328l7.739,15.481h.958L58.7,43.606H57.142Z" transform="translate(-13.151 -13.548)" fill="#fff"/>
      <path id="Path_69" data-name="Path 69" d="M50.651,33.84H49.258V28.927h4.481a4.15,4.15,0,0,0,0-8.3H45.51V19.234h8.229a5.543,5.543,0,1,1,0,11.086H50.651Z" transform="translate(-14.14 -5.976)" fill="#fff"/>
      <path id="Path_70" data-name="Path 70" d="M26.77,34.127a8.1,8.1,0,0,1-8.086-8.088v-6.8h1.393v6.8a6.694,6.694,0,1,0,13.388,0v-6.8h1.393v6.8a8.1,8.1,0,0,1-8.088,8.088" transform="translate(-5.805 -5.976)" fill="#fff"/>
      <path id="Path_71" data-name="Path 71" d="M28.548,57.1A28.548,28.548,0,1,1,57.1,28.548,28.581,28.581,0,0,1,28.548,57.1m0-55.68A27.132,27.132,0,1,0,55.68,28.548,27.163,27.163,0,0,0,28.548,1.416" transform="translate(0 0)" fill="#fff"/>
      <path id="Path_72" data-name="Path 72" d="M27.622,43.6H26.229a7.056,7.056,0,0,1-7.047,7.047v1.393a7.054,7.054,0,0,1,7.047,7.045h1.393a7.054,7.054,0,0,1,7.046-7.045V50.643A7.055,7.055,0,0,1,27.622,43.6m-.7,12.137a8.485,8.485,0,0,0-4.393-4.394,8.484,8.484,0,0,0,4.393-4.393,8.489,8.489,0,0,0,4.394,4.393,8.491,8.491,0,0,0-4.394,4.394" transform="translate(-5.96 -13.545)" fill="#fff"/>
      <g id="Group_116" data-name="Group 116" transform="translate(70.203 41.407)">
        <path id="Path_73" data-name="Path 73" d="M109.206,66.629a6,6,0,0,0-4.726,2.53,4.043,4.043,0,0,1-.026-.568c0-3.2,1.575-6.223,4.7-6.223a4.352,4.352,0,0,1,3.589,1.652l1.265-1.962a6.362,6.362,0,0,0-4.854-1.988c-4.933,0-7.308,4.08-7.308,8.909,0,4.725,1.937,8.883,6.869,8.883,3.8,0,6.2-2.608,6.2-5.707C114.913,68.488,112.3,66.629,109.206,66.629Zm-.62,8.935c-2.814,0-3.873-2.4-4.079-4.416a5,5,0,0,1,4.054-2.3c2.04,0,3.744,1.084,3.744,3.382A3.47,3.47,0,0,1,108.585,75.564Z" transform="translate(-101.846 -60.07)" fill="#fff"/>
        <path id="Path_74" data-name="Path 74" d="M127.836,75.679a5.767,5.767,0,0,1-4.7-2.169l-1.523,1.756a7.09,7.09,0,0,0,4.963,2.63,47.893,47.893,0,0,1,5.076-.929,5.387,5.387,0,0,0,2.537-4.748,5.3,5.3,0,0,0-5.5-5.526,5.707,5.707,0,0,0-3.951,1.523v-5.5h8.315V60.444h-10.9V69.9l1.859.594a5.294,5.294,0,0,1,3.873-1.55c2.221,0,3.693,1.317,3.693,3.382A3.44,3.44,0,0,1,127.836,75.679Z" transform="translate(-107.987 -60.186)" fill="#fff"/>
        <path id="Path_75" data-name="Path 75" d="M102.843,93.06s25.991-13.413,36.266-5.119l-6.342,1.588s-5.72-6.408-29.934,4.077Z" transform="translate(-102.153 -67.888)" fill="#fff"/>
      </g>
      <g id="Group_117" data-name="Group 117" transform="translate(97.869 41.406)">
        <path id="Path_76" data-name="Path 76" d="M158.678,61.105l1.165,2.592H157.5Zm-.2-.918-2.612,5.778h.609l.784-1.714H160.1l.783,1.714h.609l-2.6-5.752-.012-.026Z" transform="translate(-146.295 -60.106)" fill="#fff"/>
        <path id="Path_77" data-name="Path 77" d="M146.061,60.187l-1.7,2.509-1.682-2.489-.014-.02h-.687l2.083,3.074v2.7h.6v-2.7l2.036-3,.047-.07Z" transform="translate(-141.982 -60.106)" fill="#fff"/>
        <path id="Path_78" data-name="Path 78" d="M150.014,60.187v5.778h3.411v-.553h-2.81V63.057h2.129V62.5h-2.129V60.741h2.726v-.554Z" transform="translate(-144.477 -60.106)" fill="#fff"/>
        <path id="Path_79" data-name="Path 79" d="M168.425,62.681a1.4,1.4,0,0,0,0-2.116,1.717,1.717,0,0,0-1.187-.376h-2.08v5.778h.6v-2.91h.938l2.285,2.892.014.017h.727l-2.3-2.914a1.585,1.585,0,0,0,1-.372m-2.666-1.94h1.454a1.1,1.1,0,0,1,.8.233.852.852,0,0,1,0,1.3,1.1,1.1,0,0,1-.8.232h-1.454Z" transform="translate(-149.182 -60.106)" fill="#fff"/>
        <path id="Path_80" data-name="Path 80" d="M174.65,65.457a1.9,1.9,0,0,1-1.566-.8l-.029-.035-.443.374.027.034a2.462,2.462,0,0,0,2.011.976,1.65,1.65,0,0,0,1.782-1.573,1.6,1.6,0,0,0-.925-1.412,6.21,6.21,0,0,0-.827-.383c-.645-.261-1.2-.485-1.2-1.057a1.026,1.026,0,0,1,1.156-.963,1.667,1.667,0,0,1,1.155.453l.034.028.383-.425-.036-.03a2.344,2.344,0,0,0-1.553-.58,1.594,1.594,0,0,0-1.739,1.541,1.4,1.4,0,0,0,.831,1.209,6.043,6.043,0,0,0,.8.37c.68.276,1.323.538,1.323,1.248a1.116,1.116,0,0,1-1.181,1.02" transform="translate(-151.498 -60.069)" fill="#fff"/>
        <path id="Path_81" data-name="Path 81" d="M212.44,64.847,208.517,60.2l-.013-.017H208.1v5.779h.6v-4.66l3.923,4.644.013.017h.407V60.187h-.6Z" transform="translate(-162.523 -60.106)" fill="#fff"/>
        <path id="Path_82" data-name="Path 82" d="M191.928,60.069a2.971,2.971,0,1,0,3.008,2.971,2.924,2.924,0,0,0-3.008-2.971m0,5.388a2.417,2.417,0,1,1,2.407-2.417,2.359,2.359,0,0,1-2.407,2.417" transform="translate(-156.565 -60.069)" fill="#fff"/>
        <path id="Path_83" data-name="Path 83" d="M203.357,63.67A1.769,1.769,0,0,1,203.1,64.7a1.956,1.956,0,0,1-3.144,0,1.772,1.772,0,0,1-.256-1.032V60.188h-.6v3.458a2.3,2.3,0,0,0,.356,1.35,2.566,2.566,0,0,0,4.145,0,2.3,2.3,0,0,0,.357-1.35V60.188h-.6Z" transform="translate(-159.728 -60.106)" fill="#fff"/>
        <path id="Path_84" data-name="Path 84" d="M186.683,60.187H186L184.3,62.7l-1.683-2.488-.013-.02h-.687L184,63.261v2.7h.6v-2.7l2.036-3Z" transform="translate(-154.389 -60.106)" fill="#fff"/>
        <path id="Path_85" data-name="Path 85" d="M220.039,63.477v-.554h2.092V65.04a3.037,3.037,0,0,1-5.34-1.889,2.976,2.976,0,0,1,3.077-2.947,2.876,2.876,0,0,1,2.116.961l-.439.342a2.378,2.378,0,0,0-4.111,1.644,2.271,2.271,0,0,0,2.434,2.393,2.383,2.383,0,0,0,1.661-.627V63.477Z" transform="translate(-165.224 -60.111)" fill="#fff"/>
        <path id="Path_86" data-name="Path 86" d="M227.366,61.2l-.082,3.24h-.553l-.082-3.24v-.855h.717Zm-.7,4.021h.684v.822h-.684Z" transform="translate(-168.287 -60.155)" fill="#fff"/>
      </g>
    </g>
  </g>
</svg>
