<?xml version="1.0" encoding="UTF-8" standalone="no"?>
<!-- Created with Inkscape (http://www.inkscape.org/) -->

<svg
   version="1.1"
   id="svg1"
   width="463.30667"
   height="112.58667"
   viewBox="0 0 463.30667 112.58667"
   sodipodi:docname="UPV_White_Horz.eps"
   xmlns:inkscape="http://www.inkscape.org/namespaces/inkscape"
   xmlns:sodipodi="http://sodipodi.sourceforge.net/DTD/sodipodi-0.dtd"
   xmlns="http://www.w3.org/2000/svg"
   xmlns:svg="http://www.w3.org/2000/svg">
  <defs
     id="defs1" />
  <sodipodi:namedview
     id="namedview1"
     pagecolor="#ffffff"
     bordercolor="#000000"
     borderopacity="0.25"
     inkscape:showpageshadow="2"
     inkscape:pageopacity="0.0"
     inkscape:pagecheckerboard="0"
     inkscape:deskcolor="#d1d1d1">
    <inkscape:page
       x="0"
       y="0"
       inkscape:label="1"
       id="page1"
       width="463.30667"
       height="112.58667"
       margin="0"
       bleed="0" />
  </sodipodi:namedview>
  <g
     id="g1"
     inkscape:groupmode="layer"
     inkscape:label="1">
    <g
       id="group-R5">
      <path
         id="path2"
         d="m 1216.2,449.316 c 28.69,0 54.58,13.157 69.26,35.172 8.24,12.399 11.92,26.309 11.92,45.11 v 115.57 H 1277.3 V 528.773 c 0,-14.988 -2.55,-25.304 -8.57,-34.476 -11.11,-16.59 -30.75,-26.492 -52.53,-26.492 -21.78,0 -41.42,9.902 -52.54,26.476 -6,9.176 -8.56,19.492 -8.56,34.492 v 116.395 h -20.09 v -115.57 c 0,-18.801 3.68,-32.711 11.92,-45.11 14.68,-22.015 40.58,-35.172 69.27,-35.172"
         style="fill:#ffffff;fill-opacity:1;fill-rule:nonzero;stroke:none"
         transform="matrix(0.13333333,0,0,-0.13333333,0,112.58667)" />
      <path
         id="path3"
         d="m 1503.32,489.422 -131.55,155.746 h -13.58 V 452.031 h 20.08 v 155.758 l 131.1,-155.219 0.45,-0.539 h 13.59 v 193.137 h -20.09 V 489.422"
         style="fill:#ffffff;fill-opacity:1;fill-rule:nonzero;stroke:none"
         transform="matrix(0.13333333,0,0,-0.13333333,0,112.58667)" />
      <path
         id="path4"
         d="m 1586.22,452.031 h 20.08 v 193.137 h -20.08 V 452.031"
         style="fill:#ffffff;fill-opacity:1;fill-rule:nonzero;stroke:none"
         transform="matrix(0.13333333,0,0,-0.13333333,0,112.58667)" />
      <path
         id="path5"
         d="m 1703.67,452.031 h 20.08 V 626.68 h 56.92 v 18.488 H 1646.76 V 626.68 h 56.91 V 452.031"
         style="fill:#ffffff;fill-opacity:1;fill-rule:nonzero;stroke:none"
         transform="matrix(0.13333333,0,0,-0.13333333,0,112.58667)" />
      <path
         id="path6"
         d="m 1935.44,470.52 h -93.92 v 78.757 h 71.15 v 18.477 h -71.15 v 58.926 h 91.07 v 18.488 H 1821.44 V 452.031 h 114 v 18.489"
         style="fill:#ffffff;fill-opacity:1;fill-rule:nonzero;stroke:none"
         transform="matrix(0.13333333,0,0,-0.13333333,0,112.58667)" />
      <path
         id="path7"
         d="m 2036.51,626.68 c 26.69,0 45.11,-4.852 59.72,-15.727 19.51,-14.566 30.7,-37.297 30.7,-62.351 0,-25.051 -11.19,-47.782 -30.7,-62.356 -14.62,-10.879 -33.04,-15.726 -59.72,-15.726 h -37.48 v 156.16 z m 70.31,-156.446 0.01,0.012 c 25.15,17.875 40.18,47.168 40.18,78.356 0,31.195 -15.03,60.488 -40.19,78.363 -17.66,12.422 -39.73,18.203 -69.45,18.203 h -58.42 V 452.031 h 58.42 c 29.72,0 51.79,5.793 69.45,18.203"
         style="fill:#ffffff;fill-opacity:1;fill-rule:nonzero;stroke:none"
         transform="matrix(0.13333333,0,0,-0.13333333,0,112.58667)" />
      <path
         id="path8"
         d="m 2316.4,626.68 h 54.27 c 13.57,0 22.73,-2.973 29.7,-9.633 6.21,-5.938 9.78,-14.152 9.78,-22.539 0,-8.395 -3.57,-16.617 -9.78,-22.547 -6.97,-6.66 -16.13,-9.637 -29.7,-9.637 h -54.27 z m 95.04,6.754 c -10,8.007 -22.68,11.734 -39.92,11.734 h -75.2 V 452.031 h 20.08 v 91.817 h 55.12 c 17.24,0 29.92,3.726 39.92,11.738 11.94,9.629 18.78,23.82 18.78,38.922 0,15.101 -6.84,29.293 -18.78,38.926"
         style="fill:#ffffff;fill-opacity:1;fill-rule:nonzero;stroke:none"
         transform="matrix(0.13333333,0,0,-0.13333333,0,112.58667)" />
      <path
         id="path9"
         d="m 2586.38,470.52 h -93.91 v 174.648 h -20.08 V 452.031 h 113.99 v 18.489"
         style="fill:#ffffff;fill-opacity:1;fill-rule:nonzero;stroke:none"
         transform="matrix(0.13333333,0,0,-0.13333333,0,112.58667)" />
      <path
         id="path10"
         d="m 2667.77,527.832 39.23,86.652 38.95,-86.652 z m -8.18,-18.484 h 94.82 l 26.19,-57.317 h 20.36 l -86.9,192.258 -0.4,0.879 h -13.32 l -87.29,-193.137 h 20.36 l 26.18,57.317"
         style="fill:#ffffff;fill-opacity:1;fill-rule:nonzero;stroke:none"
         transform="matrix(0.13333333,0,0,-0.13333333,0,112.58667)" />
      <path
         id="path11"
         d="m 2948.06,645.168 h -22.98 l -56.69,-83.844 -56.24,83.184 -0.44,0.66 h -22.99 l 69.63,-102.73 v -90.407 h 20.09 v 90.407 l 68.02,100.39 1.6,2.34"
         style="fill:#ffffff;fill-opacity:1;fill-rule:nonzero;stroke:none"
         transform="matrix(0.13333333,0,0,-0.13333333,0,112.58667)" />
      <path
         id="path12"
         d="m 3007.67,549.277 h 71.14 v 18.477 h -71.14 v 58.926 h 91.06 v 18.488 H 2987.59 V 452.031 h 113.98 v 18.489 h -93.9 v 78.757"
         style="fill:#ffffff;fill-opacity:1;fill-rule:nonzero;stroke:none"
         transform="matrix(0.13333333,0,0,-0.13333333,0,112.58667)" />
      <path
         id="path13"
         d="m 3166.48,626.68 h 48.59 c 12.65,0 20.6,-2.321 26.61,-7.778 6.37,-5.543 10.02,-13.441 10.02,-21.679 0,-8.239 -3.65,-16.137 -10.04,-21.703 -5.99,-5.442 -13.95,-7.766 -26.59,-7.766 h -48.59 z m 89.12,-64.821 c 10.28,8.954 16.18,21.836 16.18,35.364 0,13.523 -5.9,26.41 -16.18,35.355 -9.96,8.59 -22.56,12.59 -39.68,12.59 h -69.51 V 452.031 h 20.07 v 97.246 h 31.36 l 76.38,-96.668 0.46,-0.578 h 24.3 l -76.94,97.383 c 14.33,0.899 25.05,4.891 33.56,12.445"
         style="fill:#ffffff;fill-opacity:1;fill-rule:nonzero;stroke:none"
         transform="matrix(0.13333333,0,0,-0.13333333,0,112.58667)" />
      <path
         id="path14"
         d="m 3386.23,467.805 c -27.28,0 -42.3,14.215 -52.34,26.601 l -0.96,1.192 -14.81,-12.516 0.91,-1.137 c 17.22,-21.652 39.83,-32.629 67.2,-32.629 33.95,0 59.55,22.61 59.55,52.575 0,19.437 -10.11,34.875 -30.91,47.187 -8.66,5.125 -18.32,9.027 -27.65,12.805 -21.57,8.711 -40.19,16.226 -40.19,35.34 0,18.949 15.88,32.183 38.62,32.183 14.59,0 25.78,-4.386 38.6,-15.136 l 1.11,-0.934 12.82,14.184 -1.19,1 c -5.73,4.793 -23.17,19.363 -51.9,19.363 -33.68,0 -58.14,-21.653 -58.14,-51.481 0,-21.351 14.85,-32.808 27.78,-40.406 8.28,-4.879 17.66,-8.691 26.74,-12.379 22.75,-9.242 44.23,-17.969 44.23,-41.726 0,-21.055 -20.49,-34.086 -39.47,-34.086"
         style="fill:#ffffff;fill-opacity:1;fill-rule:nonzero;stroke:none"
         transform="matrix(0.13333333,0,0,-0.13333333,0,112.58667)" />
      <path
         id="path15"
         d="m 1222.74,217.805 c -45.87,0 -80.46,34.726 -80.46,80.789 0,46.066 34.59,80.801 80.46,80.801 45.87,0 80.45,-34.735 80.45,-80.801 0,-46.063 -34.58,-80.789 -80.45,-80.789 z m 0,180.078 c -57.31,0 -100.53,-42.688 -100.53,-99.289 0,-56.59 43.22,-99.278 100.53,-99.278 57.32,0 100.54,42.688 100.54,99.278 0,56.601 -43.22,99.289 -100.54,99.289"
         style="fill:#ffffff;fill-opacity:1;fill-rule:nonzero;stroke:none"
         transform="matrix(0.13333333,0,0,-0.13333333,0,112.58667)" />
      <path
         id="path16"
         d="m 1370.13,202.031 h 20.07 v 97.239 h 71.15 v 18.484 h -71.15 v 58.918 h 91.07 v 18.496 H 1370.13 V 202.031"
         style="fill:#ffffff;fill-opacity:1;fill-rule:nonzero;stroke:none"
         transform="matrix(0.13333333,0,0,-0.13333333,0,112.58667)" />
      <path
         id="path17"
         d="m 1795.13,395.168 h -20.92 l -68.16,-160.637 -67.77,159.719 -0.38,0.918 h -20.92 l 82.39,-193.137 h 13.36 l 81.5,191.047 0.9,2.09"
         style="fill:#ffffff;fill-opacity:1;fill-rule:nonzero;stroke:none"
         transform="matrix(0.13333333,0,0,-0.13333333,0,112.58667)" />
      <path
         id="path18"
         d="m 1924.03,277.832 h -78.17 l 39.23,86.641 z m -32.28,117.336 h -13.32 l -87.3,-193.137 h 20.36 l 26.19,57.305 h 94.82 l 26.18,-57.305 h 20.36 l -86.89,192.246 -0.4,0.891"
         style="fill:#ffffff;fill-opacity:1;fill-rule:nonzero;stroke:none"
         transform="matrix(0.13333333,0,0,-0.13333333,0,112.58667)" />
      <path
         id="path19"
         d="m 2169.31,239.414 -131.11,155.215 -0.45,0.539 h -13.57 V 202.031 h 20.08 v 155.754 l 131.1,-155.215 0.45,-0.539 h 13.58 v 193.137 h -20.08 V 239.414"
         style="fill:#ffffff;fill-opacity:1;fill-rule:nonzero;stroke:none"
         transform="matrix(0.13333333,0,0,-0.13333333,0,112.58667)" />
      <path
         id="path20"
         d="m 2413.35,247.121 c -14.5,-18.086 -39.13,-29.316 -64.28,-29.316 -47.33,0 -83.02,34.726 -83.02,80.789 0,46.066 34.96,80.801 81.31,80.801 22.83,0 45.08,-9.063 59.53,-24.247 l 1.04,-1.085 13.84,13.203 -1.04,1.086 c -17.91,18.769 -44.65,29.531 -73.37,29.531 -57.79,0 -101.38,-42.688 -101.38,-99.289 0,-57.52 43.72,-99.278 103.95,-99.278 30.19,0 60.07,13.645 78,35.598 l 0.94,1.141 -14.55,12.265 -0.97,-1.199"
         style="fill:#ffffff;fill-opacity:1;fill-rule:nonzero;stroke:none"
         transform="matrix(0.13333333,0,0,-0.13333333,0,112.58667)" />
      <path
         id="path21"
         d="m 2560.02,217.805 c -45.87,0 -80.46,34.726 -80.46,80.789 0,46.066 34.59,80.801 80.46,80.801 45.87,0 80.45,-34.735 80.45,-80.801 0,-46.063 -34.58,-80.789 -80.45,-80.789 z m 0,180.078 c -57.32,0 -100.54,-42.688 -100.54,-99.289 0,-56.59 43.22,-99.278 100.54,-99.278 57.31,0 100.54,42.688 100.54,99.278 0,56.601 -43.23,99.289 -100.54,99.289"
         style="fill:#ffffff;fill-opacity:1;fill-rule:nonzero;stroke:none"
         transform="matrix(0.13333333,0,0,-0.13333333,0,112.58667)" />
      <path
         id="path22"
         d="m 2856.29,278.77 c 0,-14.989 -2.56,-25.301 -8.58,-34.481 -11.1,-16.582 -30.74,-26.484 -52.53,-26.484 -21.77,0 -41.42,9.902 -52.53,26.472 -6.01,9.18 -8.57,19.493 -8.57,34.493 v 116.398 h -20.09 V 279.59 c 0,-18.797 3.69,-32.703 11.93,-45.106 14.68,-22.023 40.57,-35.168 69.26,-35.168 28.7,0 54.59,13.145 69.26,35.168 8.24,12.403 11.93,26.309 11.93,45.106 v 115.578 h -20.08 V 278.77"
         style="fill:#ffffff;fill-opacity:1;fill-rule:nonzero;stroke:none"
         transform="matrix(0.13333333,0,0,-0.13333333,0,112.58667)" />
      <path
         id="path23"
         d="m 3009.93,234.531 -67.77,159.719 -0.38,0.918 h -20.92 l 82.39,-193.137 h 13.36 l 81.49,191.047 0.9,2.09 h -20.91 l -68.16,-160.637"
         style="fill:#ffffff;fill-opacity:1;fill-rule:nonzero;stroke:none"
         transform="matrix(0.13333333,0,0,-0.13333333,0,112.58667)" />
      <path
         id="path24"
         d="m 3164.98,299.27 h 71.14 v 18.484 h -71.14 v 58.918 h 91.06 v 18.496 H 3144.9 V 202.031 h 114 v 18.489 h -93.92 v 78.75"
         style="fill:#ffffff;fill-opacity:1;fill-rule:nonzero;stroke:none"
         transform="matrix(0.13333333,0,0,-0.13333333,0,112.58667)" />
      <path
         id="path25"
         d="m 3329.61,376.672 h 48.58 c 12.66,0 20.61,-2.317 26.61,-7.774 6.37,-5.539 10.02,-13.449 10.02,-21.679 0,-8.235 -3.65,-16.145 -10.04,-21.699 -5.98,-5.45 -13.94,-7.766 -26.59,-7.766 h -48.58 z m 55.56,-77.258 c 14.32,0.891 25.04,4.883 33.56,12.441 10.27,8.946 16.17,21.836 16.17,35.364 0,13.523 -5.9,26.414 -16.18,35.351 -9.95,8.594 -22.56,12.598 -39.68,12.598 h -69.51 V 202.031 h 20.08 v 97.239 h 31.36 l 76.37,-96.661 0.46,-0.578 h 24.31 l -76.94,97.383"
         style="fill:#ffffff;fill-opacity:1;fill-rule:nonzero;stroke:none"
         transform="matrix(0.13333333,0,0,-0.13333333,0,112.58667)" />
      <path
         id="path26"
         d="m 546.484,211.191 -95.558,191.137 h -22.324 l -0.028,-0.012 111.082,-222.187 h 13.75 L 663.543,402.328 H 641.211 L 546.484,211.191"
         style="fill:#ffffff;fill-opacity:1;fill-rule:nonzero;stroke:none"
         transform="matrix(0.13333333,0,0,-0.13333333,0,112.58667)" />
      <path
         id="path27"
         d="m 533.848,433.809 h -20 v 70.523 h 64.316 c 32.84,0 59.559,26.719 59.559,59.563 0,32.835 -26.719,59.554 -59.559,59.554 H 460.059 v 20 h 118.105 c 43.867,0 79.559,-35.687 79.559,-79.554 0,-43.875 -35.692,-79.563 -79.559,-79.563 h -44.316 v -50.523"
         style="fill:#ffffff;fill-opacity:1;fill-rule:nonzero;stroke:none"
         transform="matrix(0.13333333,0,0,-0.13333333,0,112.58667)" />
      <path
         id="path28"
         d="m 310.723,429.699 c -63.996,0 -116.067,52.071 -116.067,116.074 v 97.657 h 20 v -97.657 c 0,-52.972 43.098,-96.074 96.067,-96.074 52.976,0 96.074,43.102 96.074,96.074 v 97.657 h 20 v -97.657 c 0,-64.003 -52.07,-116.074 -116.074,-116.074"
         style="fill:#ffffff;fill-opacity:1;fill-rule:nonzero;stroke:none"
         transform="matrix(0.13333333,0,0,-0.13333333,0,112.58667)" />
      <path
         id="path29"
         d="m 419.559,813.414 c -214.727,0 -389.4145,-174.691 -389.4145,-389.418 0,-214.719 174.6875,-389.4062 389.4145,-389.4062 214.718,0 389.406,174.6872 389.406,389.4062 0,214.727 -174.688,389.418 -389.406,389.418 z m 0,-799.1562 C 193.633,14.2578 9.8125,198.066 9.8125,423.996 c 0,225.934 183.8205,409.738 409.7465,409.738 225.929,0 409.738,-183.804 409.738,-409.738 0,-225.93 -183.809,-409.7382 -409.738,-409.7382"
         style="fill:#ffffff;fill-opacity:1;fill-rule:nonzero;stroke:none"
         transform="matrix(0.13333333,0,0,-0.13333333,0,112.58667)" />
      <path
         id="path30"
         d="m 310.723,228.234 c -12.239,28.184 -34.875,50.817 -63.059,63.055 28.184,12.238 50.82,34.875 63.059,63.059 12.246,-28.184 34.882,-50.821 63.066,-63.059 -28.184,-12.238 -50.82,-34.871 -63.066,-63.055 z m 10,174.188 h -20 c 0,-55.762 -45.371,-101.133 -101.133,-101.133 v -20 c 55.762,0 101.133,-45.359 101.133,-101.121 h 20 c 0,55.762 45.371,101.121 101.132,101.121 v 20 c -55.761,0 -101.132,45.371 -101.132,101.133"
         style="fill:#ffffff;fill-opacity:1;fill-rule:nonzero;stroke:none"
         transform="matrix(0.13333333,0,0,-0.13333333,0,112.58667)" />
      <text
         id="text30"
         xml:space="preserve"
         transform="matrix(1.3333333,0,0,1.3333333,0,-9.7654667)"><tspan
           id="tspan30"
           style="font-variant:normal;font-weight:bold;font-size:17.3969px;font-family:HelveticaNeue-Bold;writing-mode:lr-tb;fill:#231f20;fill-opacity:1;fill-rule:nonzero;stroke:none"
           x="0"
           y="0">UPV_White_Horz</tspan></text>
    </g>
  </g>
</svg>
